<?xml version="1.0" encoding="UTF-8"?>
<svg id="Camada_1" data-name="Camada 1" xmlns="http://www.w3.org/2000/svg" xmlns:xlink="http://www.w3.org/1999/xlink" viewBox="0 0 348 218">
  <defs>
    <style>
      .cls-1, .cls-2 {
        fill: #fff;
      }

      .cls-3, .cls-4 {
        fill: #006d35;
      }

      .cls-5 {
        clip-path: url(#clippath);
      }

      .cls-6, .cls-7, .cls-8 {
        fill: none;
      }

      .cls-2 {
        font-family: Arial-BoldMT, Arial;
        font-size: 11.43px;
      }

      .cls-7, .cls-8 {
        stroke: #aad5bb;
        stroke-miterlimit: 22.93;
        stroke-width: .28px;
      }

      .cls-9 {
        fill: #d7ead9;
      }

      .cls-10 {
        fill: #006431;
      }

      .cls-10, .cls-8, .cls-4 {
        fill-rule: evenodd;
      }
    </style>
    <clipPath id="clippath">
      <rect class="cls-6" x=".38" y="-.08" width="348.25" height="218.67" rx="21.99" ry="21.99"/>
    </clipPath>
  </defs>
  <rect class="cls-9" x=".38" y="-.08" width="348.25" height="218.67" rx="21.99" ry="21.99"/>
  <g class="cls-5">
    <g>
      <rect class="cls-7" x=".38" y="-.08" width="348.25" height="218.67"/>
      <polygon class="cls-8" points="201.82 218.59 248.1 162.66 197.02 120.18 112.15 218.59 201.82 218.59"/>
      <polygon class="cls-8" points="348.64 218.59 315.37 218.59 197.01 120.18 300.71 -.08 348.64 -.08 348.64 218.59"/>
      <polygon class="cls-8" points="197.02 120.18 300.71 -.08 206.74 -.08 143.12 73.7 197.02 120.18"/>
      <polygon class="cls-8" points="112.15 218.59 197.02 120.18 143.12 73.7 18.18 218.59 112.15 218.59"/>
      <polygon class="cls-8" points=".38 218.59 18.18 218.59 143.12 73.7 59.74 -.08 .38 -.08 .38 218.59"/>
      <polygon class="cls-8" points="206.74 -.08 143.12 73.7 59.74 -.08 206.74 -.08"/>
      <polygon class="cls-8" points="315.37 218.59 248.1 162.66 201.82 218.59 315.37 218.59"/>
    </g>
  </g>
  <rect class="cls-3" x="120.53" y="42.28" width="228.11" height="16.49"/>
  <g>
    <g>
      <path class="cls-4" d="M153.2,64.39l-.04,.93c-.17-.11-.34-.18-.51-.23-.17-.05-.38-.07-.61-.07-.52,0-.93,.19-1.23,.57-.29,.38-.44,.91-.44,1.59,0,.72,.15,1.27,.46,1.67,.31,.4,.74,.59,1.29,.59,.19,0,.37-.03,.55-.08s.36-.13,.53-.23l.03,.95c-.2,.08-.4,.13-.61,.17-.21,.04-.44,.05-.67,.05-.82,0-1.48-.28-1.98-.84-.5-.56-.75-1.3-.75-2.24s.24-1.71,.73-2.27c.49-.56,1.15-.83,1.97-.83,.21,0,.42,.02,.63,.06,.21,.04,.43,.1,.65,.19h0Zm3.01,3.7s-.04,0-.09,0c-.12-.01-.21-.02-.29-.02-.39,0-.67,.07-.86,.2-.19,.14-.28,.34-.28,.62,0,.21,.06,.38,.18,.49,.12,.12,.28,.18,.49,.18,.3,0,.51-.1,.65-.29,.14-.19,.21-.49,.21-.9v-.29h0Zm1.01-.49v1.75c0,.19,0,.35,.01,.49,0,.14,.02,.27,.04,.39h-.96l-.06-.55c-.16,.22-.34,.38-.55,.49-.21,.11-.44,.16-.7,.16-.38,0-.7-.12-.93-.37-.24-.25-.35-.58-.35-.98,0-.49,.18-.86,.53-1.12,.36-.26,.87-.38,1.55-.38,.08,0,.16,0,.23,0,.07,0,.13,0,.2,0v-.19c0-.27-.08-.47-.23-.61-.15-.14-.37-.21-.66-.21-.21,0-.41,.03-.6,.1-.19,.07-.36,.18-.52,.32l-.07-.83c.23-.11,.47-.2,.71-.25,.24-.06,.47-.08,.7-.08,.62,0,1.05,.14,1.3,.41,.25,.27,.38,.77,.38,1.49h0Zm3.34-1.88v.98s-.05,0-.11-.01c-.06,0-.11-.01-.15-.01-.32,0-.56,.1-.72,.31-.16,.2-.23,.52-.23,.94v2.31h-1.03v-3.4c0-.2,0-.38-.01-.55,0-.17-.02-.33-.03-.48h.94s0,.02,0,.02c.02,.27,.03,.48,.03,.61v.13c.11-.28,.27-.49,.47-.63,.2-.14,.43-.21,.71-.21h0s.08,0,.12,0h0Zm1.75-1.14v1.22h.86v.75h-.86v2.15c0,.33,.04,.55,.11,.65,.07,.1,.2,.15,.39,.15,.06,0,.13,0,.19-.02,.06-.01,.14-.03,.21-.05v.77c-.13,.03-.26,.05-.38,.07-.12,.02-.24,.02-.35,.02-.44,0-.75-.11-.93-.32-.18-.21-.27-.63-.27-1.27v-2.16h-.71v-.75h.71v-.91l1.03-.31h0Zm3.75,3.52s-.04,0-.08,0c-.12-.01-.21-.02-.29-.02-.39,0-.67,.07-.86,.2-.19,.14-.28,.34-.28,.62,0,.21,.06,.38,.18,.49,.12,.12,.28,.18,.49,.18,.3,0,.51-.1,.65-.29,.14-.19,.21-.49,.21-.9v-.29h0Zm1.01-.49v1.75c0,.19,0,.35,.01,.49,0,.14,.02,.27,.04,.39h-.96l-.06-.55c-.16,.22-.34,.38-.55,.49-.21,.11-.44,.16-.7,.16-.38,0-.7-.12-.93-.37-.24-.25-.35-.58-.35-.98,0-.49,.18-.86,.53-1.12,.36-.26,.87-.38,1.55-.38,.09,0,.16,0,.23,0,.07,0,.13,0,.2,0v-.19c0-.27-.08-.47-.23-.61-.15-.14-.37-.21-.66-.21-.21,0-.41,.03-.6,.1-.19,.07-.36,.18-.52,.32l-.07-.83c.23-.11,.47-.2,.71-.25,.24-.06,.47-.08,.7-.08,.62,0,1.05,.14,1.3,.41,.25,.27,.38,.77,.38,1.49h0Zm-.71-3.61h.42c-.08,.32-.19,.56-.33,.71-.14,.15-.32,.22-.53,.22-.06,0-.11,0-.16-.01s-.1-.02-.14-.03l-.39-.12s-.09-.02-.13-.03c-.04,0-.08-.01-.11-.01-.1,0-.18,.03-.25,.08-.06,.05-.12,.13-.16,.23h-.42c.07-.31,.18-.53,.32-.68,.14-.15,.32-.22,.54-.22,.06,0,.11,0,.17,.01,.05,0,.1,.02,.14,.03l.41,.13c.06,.01,.1,.02,.14,.03,.03,0,.06,0,.1,0,.09,0,.17-.03,.23-.08,.06-.05,.11-.14,.15-.25h0Zm3.48,2.49c-.26,0-.47,.13-.61,.4-.14,.26-.21,.65-.21,1.14s.07,.87,.21,1.13c.14,.26,.35,.39,.61,.39s.47-.13,.61-.39,.21-.63,.21-1.13-.07-.88-.21-1.14c-.14-.26-.35-.4-.61-.4h0Zm0-.78c.61,0,1.09,.2,1.42,.6,.33,.4,.5,.97,.5,1.71s-.17,1.31-.5,1.71c-.33,.4-.81,.6-1.42,.6s-1.08-.2-1.41-.6c-.33-.4-.5-.97-.5-1.71s.17-1.31,.49-1.71c.33-.4,.8-.6,1.41-.6h0Zm5.09-1.47h3.09v.83h-2.01v1.68h1.9v.83h-1.9v1.83h2.11v.83h-3.19v-5.99h0Zm6.94,1.66l-.05,.84c-.11-.06-.23-.11-.37-.15-.13-.04-.26-.05-.39-.05-.36,0-.63,.12-.82,.37-.19,.24-.29,.59-.29,1.05,0,.49,.1,.87,.29,1.14,.19,.27,.47,.4,.83,.4,.14,0,.28-.02,.41-.05,.14-.04,.27-.09,.4-.16l.04,.85c-.18,.07-.36,.12-.55,.15-.18,.03-.38,.05-.58,.05-.6,0-1.07-.21-1.42-.62-.35-.41-.53-.97-.53-1.66,0-.74,.18-1.31,.54-1.72,.36-.41,.86-.61,1.5-.61,.15,0,.31,.02,.47,.05,.16,.03,.33,.08,.5,.14h0Zm2.4,.59c-.26,0-.47,.13-.61,.4-.14,.26-.21,.65-.21,1.14s.07,.87,.21,1.13c.14,.26,.35,.39,.61,.39s.47-.13,.61-.39,.21-.63,.21-1.13-.07-.88-.21-1.14c-.14-.26-.35-.4-.61-.4h0Zm0-.78c.61,0,1.09,.2,1.42,.6,.33,.4,.5,.97,.5,1.71s-.17,1.31-.5,1.71c-.33,.4-.81,.6-1.42,.6s-1.08-.2-1.41-.6c-.33-.4-.5-.97-.5-1.71s.17-1.31,.49-1.71c.33-.4,.8-.6,1.41-.6h0Zm7.9-1.37l-.05,.91c-.2-.08-.38-.14-.56-.19-.17-.04-.34-.06-.49-.06-.28,0-.5,.06-.65,.18-.15,.12-.23,.29-.23,.52,0,.17,.06,.32,.17,.45,.11,.13,.36,.32,.75,.57l.09,.05c.84,.54,1.27,1.12,1.27,1.75,0,.54-.18,.98-.54,1.31s-.83,.5-1.41,.5c-.24,0-.48-.03-.71-.08-.23-.05-.45-.12-.65-.21l.08-.92c.21,.12,.42,.21,.62,.27,.2,.06,.4,.09,.6,.09,.28,0,.51-.07,.67-.21,.17-.14,.25-.33,.25-.56,0-.37-.31-.74-.92-1.12-.09-.06-.16-.1-.2-.13-.45-.29-.76-.55-.93-.79-.17-.24-.25-.53-.25-.87,0-.51,.17-.91,.51-1.21,.34-.3,.81-.45,1.4-.45,.19,0,.39,.02,.59,.05,.2,.03,.39,.08,.58,.14h0Zm3.38,3.77s-.04,0-.08,0c-.12-.01-.21-.02-.29-.02-.39,0-.67,.07-.86,.2-.19,.14-.28,.34-.28,.62,0,.21,.06,.38,.18,.49,.12,.12,.28,.18,.49,.18,.3,0,.51-.1,.65-.29,.14-.19,.21-.49,.21-.9v-.29h0Zm1.01-.49v1.75c0,.19,0,.35,.01,.49,0,.14,.02,.27,.04,.39h-.96l-.06-.55c-.16,.22-.34,.38-.55,.49-.21,.11-.44,.16-.7,.16-.38,0-.7-.12-.93-.37-.24-.25-.35-.58-.35-.98,0-.49,.18-.86,.53-1.12,.36-.26,.87-.38,1.55-.38,.08,0,.16,0,.23,0,.07,0,.13,0,.2,0v-.19c0-.27-.08-.47-.23-.61-.15-.14-.37-.21-.66-.21-.21,0-.41,.03-.6,.1-.19,.07-.36,.18-.52,.32l-.07-.83c.23-.11,.47-.2,.71-.25,.24-.06,.47-.08,.7-.08,.62,0,1.05,.14,1.3,.41,.25,.27,.38,.77,.38,1.49h0Zm4.49-.43v3.06h-1.04v-2.85c0-.28-.05-.48-.15-.6-.1-.13-.25-.19-.46-.19-.22,0-.39,.09-.52,.28-.13,.19-.19,.44-.19,.76v2.61h-1.04v-3.4c0-.2,0-.38-.01-.55,0-.17-.02-.33-.03-.48h.94s0,.1,.02,.18c.02,.21,.03,.37,.03,.48,.11-.24,.27-.42,.48-.55,.22-.13,.46-.2,.73-.2,.4,0,.71,.13,.93,.38,.21,.25,.32,.61,.32,1.09h0Zm2.25-2.59v1.22h.86v.75h-.86v2.15c0,.33,.04,.55,.11,.65,.07,.1,.2,.15,.39,.15,.06,0,.13,0,.19-.02,.06-.01,.14-.03,.21-.05v.77c-.13,.03-.26,.05-.38,.07-.12,.02-.24,.02-.35,.02-.44,0-.75-.11-.93-.32-.18-.21-.27-.63-.27-1.27v-2.16h-.71v-.75h.71v-.91l1.03-.31h0Zm3.75,3.52s-.04,0-.08,0c-.12-.01-.21-.02-.29-.02-.39,0-.67,.07-.86,.2-.19,.14-.28,.34-.28,.62,0,.21,.06,.38,.18,.49,.12,.12,.28,.18,.49,.18,.3,0,.51-.1,.65-.29,.14-.19,.21-.49,.21-.9v-.29h0Zm1.01-.49v1.75c0,.19,0,.35,.01,.49,0,.14,.02,.27,.04,.39h-.96l-.06-.55c-.16,.22-.34,.38-.55,.49-.21,.11-.44,.16-.7,.16-.38,0-.7-.12-.93-.37-.24-.25-.35-.58-.35-.98,0-.49,.18-.86,.53-1.12,.36-.26,.87-.38,1.55-.38,.08,0,.16,0,.23,0,.07,0,.13,0,.2,0v-.19c0-.27-.08-.47-.23-.61-.15-.14-.37-.21-.66-.21-.21,0-.41,.03-.6,.1-.19,.07-.36,.18-.52,.32l-.07-.83c.23-.11,.47-.2,.71-.25,.24-.06,.47-.08,.7-.08,.62,0,1.05,.14,1.3,.41,.25,.27,.38,.77,.38,1.49h0Zm3.34-1.88v.98s-.05,0-.11-.01c-.06,0-.11-.01-.15-.01-.32,0-.56,.1-.72,.31-.16,.2-.23,.52-.23,.94v2.31h-1.03v-3.4c0-.2,0-.38-.01-.55,0-.17-.02-.33-.03-.48h.94s0,.02,0,.02c.02,.27,.03,.48,.03,.61v.13c.11-.28,.27-.49,.47-.63,.2-.14,.43-.21,.71-.21h0s.08,0,.12,0h0Zm3.86,2.57h-2.48c.02,.42,.13,.73,.33,.94,.2,.21,.48,.31,.84,.31,.19,0,.37-.03,.55-.08,.18-.05,.36-.13,.53-.24v.81c-.19,.1-.39,.17-.59,.21-.2,.05-.42,.07-.64,.07-.65,0-1.16-.2-1.52-.59-.36-.4-.54-.96-.54-1.69s.17-1.28,.5-1.7c.33-.42,.78-.62,1.36-.62,.5,0,.91,.2,1.22,.6,.31,.4,.46,.94,.46,1.62,0,.06,0,.12,0,.18,0,.06,0,.13,0,.19h0Zm-.97-.63v-.08c0-.37-.06-.65-.18-.85-.12-.19-.3-.29-.54-.29s-.44,.1-.57,.3c-.13,.2-.21,.51-.24,.92h1.53Zm-.58-3.95h.94l-1.26,1.52h-.53l.85-1.52h0Zm5.64,2.7c.13-.24,.29-.42,.49-.54,.2-.12,.44-.18,.71-.18,.38,0,.67,.13,.87,.38,.2,.25,.31,.61,.31,1.09v3.06h-1.03v-2.85c0-.27-.05-.47-.14-.6-.09-.13-.24-.19-.43-.19-.21,0-.38,.09-.5,.28-.12,.19-.18,.45-.18,.78v2.58h-1.03v-2.85c0-.27-.05-.47-.14-.6-.09-.13-.24-.19-.43-.19-.21,0-.38,.09-.5,.28-.12,.19-.18,.45-.18,.78v2.58h-1.03v-3.4c0-.2,0-.38-.01-.55,0-.17-.02-.33-.03-.48h.94s0,.1,.02,.18c.02,.21,.03,.37,.03,.48,.1-.23,.25-.41,.46-.55,.2-.13,.43-.2,.68-.2,.27,0,.5,.06,.69,.18,.19,.12,.34,.3,.43,.53h0Zm3.61,2.68h1v1.13h-1v-1.13h0Zm0-3.3h1v1.13h-1v-1.13Z"/>
      <path class="cls-4" d="M228.37,63.71h.54c-.36,.71-.62,1.38-.79,2-.17,.62-.25,1.23-.25,1.84s.08,1.23,.25,1.85c.17,.61,.43,1.28,.79,1.98h-.54c-.4-.7-.7-1.36-.89-1.99-.19-.63-.29-1.24-.29-1.84s.1-1.21,.3-1.84c.2-.63,.49-1.3,.89-1.99h0Zm1.2,6.43l.07-.68c.12,.09,.26,.15,.41,.19,.15,.04,.32,.06,.5,.06,.47,0,.82-.19,1.05-.56,.23-.37,.36-.95,.38-1.74-.13,.21-.29,.37-.48,.48-.19,.11-.4,.16-.64,.16-.46,0-.82-.17-1.1-.51-.28-.34-.41-.8-.41-1.36,0-.62,.15-1.11,.45-1.47,.3-.36,.7-.55,1.2-.55,.59,0,1.03,.23,1.32,.69,.29,.46,.43,1.16,.43,2.11,0,1.14-.18,1.98-.53,2.53-.35,.55-.89,.83-1.62,.83-.16,0-.33-.01-.5-.04-.17-.03-.34-.07-.51-.14h0Zm1.43-5.38c-.3,0-.53,.11-.69,.34-.16,.23-.24,.56-.24,.99s.08,.77,.24,1c.16,.23,.39,.35,.69,.35s.54-.11,.7-.34c.16-.23,.24-.56,.24-.99s-.08-.77-.24-1c-.16-.23-.39-.34-.7-.34h0Zm4.62,2.35c.36,.06,.65,.21,.86,.47,.21,.26,.31,.58,.31,.98,0,.54-.18,.97-.53,1.29-.35,.32-.82,.47-1.43,.47-.21,0-.42-.02-.63-.05-.21-.04-.41-.09-.61-.17l.06-.69c.18,.09,.36,.17,.54,.21,.18,.04,.36,.07,.55,.07,.4,0,.71-.1,.93-.31,.22-.21,.33-.5,.33-.88s-.11-.63-.31-.8c-.21-.17-.54-.25-1-.25-.09,0-.17,0-.22,0-.05,0-.1,0-.15,.02v-.65h.03c.15,.01,.27,.02,.34,.02,.41,0,.73-.09,.96-.27,.23-.18,.34-.43,.34-.76s-.09-.59-.27-.76c-.18-.18-.45-.26-.79-.26-.17,0-.34,.03-.51,.08-.17,.06-.35,.15-.55,.27l-.08-.68c.19-.09,.39-.16,.62-.21,.22-.05,.45-.07,.69-.07,.51,0,.92,.14,1.22,.43,.3,.29,.46,.67,.46,1.14,0,.35-.1,.65-.29,.89-.2,.24-.47,.4-.83,.5h0Zm1.92-3.4h.54c.4,.7,.7,1.36,.9,2,.2,.64,.3,1.25,.3,1.84s-.1,1.2-.3,1.83c-.2,.63-.5,1.3-.9,2h-.54c.36-.72,.63-1.38,.79-1.99s.25-1.22,.25-1.83-.08-1.22-.25-1.84c-.17-.62-.43-1.28-.79-1.99h0Zm4.87,6.43l.07-.68c.12,.09,.26,.15,.41,.19,.15,.04,.32,.06,.5,.06,.47,0,.82-.19,1.05-.56,.23-.37,.36-.95,.38-1.74-.13,.21-.29,.37-.48,.48-.19,.11-.4,.16-.64,.16-.46,0-.82-.17-1.1-.51-.28-.34-.41-.8-.41-1.36,0-.62,.15-1.11,.45-1.47,.3-.36,.7-.55,1.2-.55,.59,0,1.03,.23,1.32,.69,.29,.46,.43,1.16,.43,2.11,0,1.14-.18,1.98-.53,2.53-.35,.55-.89,.83-1.62,.83-.16,0-.33-.01-.5-.04-.17-.03-.34-.07-.51-.14h0Zm1.43-5.38c-.3,0-.53,.11-.69,.34-.16,.23-.24,.56-.24,.99s.08,.77,.24,1c.16,.23,.39,.35,.69,.35s.54-.11,.7-.34c.16-.23,.24-.56,.24-.99s-.08-.77-.24-1c-.16-.23-.39-.34-.7-.34h0Zm2.83,5.38l.07-.68c.12,.09,.26,.15,.41,.19,.15,.04,.32,.06,.5,.06,.47,0,.82-.19,1.05-.56,.23-.37,.36-.95,.38-1.74-.13,.21-.29,.37-.48,.48-.19,.11-.4,.16-.64,.16-.46,0-.82-.17-1.1-.51-.28-.34-.41-.8-.41-1.36,0-.62,.15-1.11,.45-1.47,.3-.36,.7-.55,1.2-.55,.59,0,1.03,.23,1.32,.69,.29,.46,.43,1.16,.43,2.11,0,1.14-.18,1.98-.53,2.53-.35,.55-.89,.83-1.62,.83-.16,0-.33-.01-.5-.04-.17-.03-.34-.07-.51-.14h0Zm1.43-5.38c-.3,0-.53,.11-.69,.34-.16,.23-.24,.56-.24,.99s.08,.77,.24,1c.16,.23,.39,.35,.69,.35s.54-.11,.7-.34c.16-.23,.24-.56,.24-.99s-.08-.77-.24-1c-.16-.23-.39-.34-.7-.34h0Zm3.47,4.82h2.28v.66h-3.1v-.67c.82-.94,1.4-1.7,1.74-2.28s.51-1.07,.51-1.48c0-.31-.08-.56-.24-.74-.16-.18-.39-.27-.67-.27-.19,0-.37,.03-.55,.1-.18,.07-.36,.18-.56,.33l-.1-.7c.18-.12,.38-.21,.61-.28,.23-.07,.46-.1,.7-.1,.47,0,.85,.14,1.13,.43,.28,.29,.42,.66,.42,1.14s-.17,1.03-.51,1.65c-.34,.61-.9,1.35-1.67,2.21h0Zm5.41-2.47c.36,.06,.65,.21,.86,.47,.21,.26,.31,.58,.31,.98,0,.54-.18,.97-.53,1.29-.35,.32-.82,.47-1.43,.47-.21,0-.42-.02-.63-.05-.21-.04-.41-.09-.61-.17l.06-.69c.18,.09,.36,.17,.54,.21,.18,.04,.36,.07,.55,.07,.4,0,.71-.1,.93-.31,.22-.21,.33-.5,.33-.88s-.11-.63-.31-.8c-.21-.17-.54-.25-1-.25-.09,0-.17,0-.22,0-.05,0-.1,0-.15,.02v-.65h.03c.15,.01,.27,.02,.34,.02,.41,0,.73-.09,.96-.27,.23-.18,.34-.43,.34-.76s-.09-.59-.27-.76c-.18-.18-.44-.26-.79-.26-.17,0-.34,.03-.51,.08-.17,.06-.35,.15-.55,.27l-.08-.68c.19-.09,.39-.16,.62-.21,.22-.05,.45-.07,.69-.07,.51,0,.92,.14,1.22,.43,.3,.29,.46,.67,.46,1.14,0,.35-.1,.65-.29,.89-.2,.24-.47,.4-.83,.5h0Zm2.45,3.03l.07-.68c.12,.09,.26,.15,.41,.19,.15,.04,.32,.06,.5,.06,.47,0,.82-.19,1.05-.56,.23-.37,.36-.95,.38-1.74-.13,.21-.29,.37-.48,.48-.19,.11-.4,.16-.64,.16-.46,0-.82-.17-1.1-.51-.28-.34-.41-.8-.41-1.36,0-.62,.15-1.11,.45-1.47,.3-.36,.7-.55,1.2-.55,.59,0,1.03,.23,1.32,.69,.29,.46,.43,1.16,.43,2.11,0,1.14-.18,1.98-.53,2.53-.35,.55-.89,.83-1.62,.83-.16,0-.33-.01-.5-.04-.17-.03-.34-.07-.51-.14h0Zm1.43-5.38c-.3,0-.53,.11-.69,.34-.16,.23-.24,.56-.24,.99s.08,.77,.24,1c.16,.23,.39,.35,.69,.35s.54-.11,.7-.34c.16-.23,.24-.56,.24-.99s-.08-.77-.24-1c-.16-.23-.39-.34-.7-.34h0Zm2.59,2.91h1.83v.62h-1.83v-.62h0Zm3.42,1.91h2.28v.66h-3.1v-.67c.82-.94,1.4-1.7,1.74-2.28s.51-1.07,.51-1.48c0-.31-.08-.56-.24-.74-.16-.18-.39-.27-.67-.27-.19,0-.37,.03-.55,.1-.18,.07-.36,.18-.56,.33l-.1-.7c.18-.12,.38-.21,.61-.28,.23-.07,.46-.1,.7-.1,.47,0,.85,.14,1.13,.43,.28,.29,.42,.66,.42,1.14s-.17,1.03-.51,1.65c-.34,.61-.9,1.35-1.67,2.21h0Zm4.25,0h2.28v.66h-3.1v-.67c.82-.94,1.4-1.7,1.74-2.28s.51-1.07,.51-1.48c0-.31-.08-.56-.24-.74-.16-.18-.39-.27-.67-.27-.19,0-.37,.03-.55,.1-.18,.07-.36,.18-.56,.33l-.1-.7c.18-.12,.38-.21,.61-.28,.23-.07,.46-.1,.7-.1,.47,0,.85,.14,1.13,.43,.28,.29,.42,.66,.42,1.14s-.17,1.03-.51,1.65c-.34,.61-.9,1.35-1.67,2.21h0Zm4.25,0h2.28v.66h-3.1v-.67c.82-.94,1.4-1.7,1.74-2.28s.51-1.07,.51-1.48c0-.31-.08-.56-.24-.74-.16-.18-.39-.27-.67-.27-.19,0-.37,.03-.55,.1-.18,.07-.36,.18-.56,.33l-.1-.7c.18-.12,.38-.21,.61-.28,.23-.07,.46-.1,.7-.1,.47,0,.85,.14,1.13,.43,.28,.29,.42,.66,.42,1.14s-.17,1.03-.51,1.65c-.34,.61-.9,1.35-1.67,2.21h0Zm5.2-2.55c-.3,0-.53,.11-.69,.35-.16,.23-.24,.56-.24,.99s.08,.76,.24,.99c.16,.23,.39,.35,.69,.35s.54-.12,.7-.34c.16-.23,.24-.56,.24-.98s-.08-.78-.24-1c-.16-.23-.39-.34-.7-.34h0Zm1.44-2.7l-.07,.69c-.13-.09-.27-.15-.42-.19-.15-.04-.31-.06-.49-.06-.47,0-.82,.19-1.06,.56-.24,.37-.36,.95-.38,1.74,.12-.21,.28-.36,.47-.47,.19-.11,.4-.16,.65-.16,.46,0,.83,.17,1.11,.51,.28,.34,.42,.8,.42,1.36,0,.63-.15,1.13-.45,1.48-.3,.35-.72,.53-1.27,.53s-.97-.23-1.26-.69c-.28-.46-.43-1.13-.43-2.02,0-1.18,.17-2.05,.52-2.61,.35-.56,.89-.84,1.62-.84,.17,0,.35,.01,.52,.04,.17,.03,.34,.07,.51,.13Z"/>
    </g>
    <g>
      <path class="cls-4" d="M153.2,74.81l-.04,.93c-.17-.11-.34-.18-.51-.23-.17-.05-.38-.07-.61-.07-.52,0-.93,.19-1.23,.57-.29,.38-.44,.91-.44,1.59,0,.72,.15,1.27,.46,1.67,.31,.4,.74,.59,1.29,.59,.19,0,.37-.03,.55-.08,.18-.05,.36-.13,.53-.23l.03,.95c-.2,.08-.4,.13-.61,.17-.21,.04-.44,.05-.67,.05-.82,0-1.48-.28-1.98-.84-.5-.56-.75-1.3-.75-2.24s.24-1.71,.73-2.27c.49-.56,1.15-.83,1.97-.83,.21,0,.42,.02,.63,.06,.21,.04,.43,.1,.65,.19h0Zm3.01,3.7s-.04,0-.09,0c-.12-.01-.21-.02-.29-.02-.39,0-.67,.07-.86,.2-.19,.14-.28,.34-.28,.62,0,.21,.06,.38,.18,.49,.12,.12,.28,.18,.49,.18,.3,0,.51-.1,.65-.29,.14-.19,.21-.49,.21-.9v-.29h0Zm1.01-.49v1.75c0,.19,0,.35,.01,.49,0,.14,.02,.27,.04,.39h-.96l-.06-.55c-.16,.22-.34,.38-.55,.49-.21,.11-.44,.16-.7,.16-.38,0-.7-.12-.93-.37-.24-.25-.35-.58-.35-.98,0-.49,.18-.86,.53-1.12,.36-.26,.87-.38,1.55-.38,.08,0,.16,0,.23,0,.07,0,.13,0,.2,0v-.19c0-.27-.08-.47-.23-.61-.15-.14-.37-.21-.66-.21-.21,0-.41,.03-.6,.1-.19,.07-.36,.18-.52,.32l-.07-.83c.23-.11,.47-.2,.71-.25,.24-.06,.47-.09,.7-.09,.62,0,1.05,.14,1.3,.41,.25,.27,.38,.77,.38,1.49h0Zm3.34-1.88v.98s-.05,0-.11-.01c-.06,0-.11-.01-.15-.01-.32,0-.56,.1-.72,.31-.16,.2-.23,.52-.23,.94v2.31h-1.03v-3.4c0-.2,0-.38-.01-.55,0-.17-.02-.33-.03-.48h.94s0,.02,0,.02c.02,.27,.03,.48,.03,.61v.13c.11-.28,.27-.49,.47-.63,.2-.14,.43-.21,.71-.21h0s.08,0,.12,0h0Zm1.75-1.14v1.22h.86v.75h-.86v2.15c0,.33,.04,.55,.11,.65,.07,.1,.2,.15,.39,.15,.06,0,.13,0,.19-.02,.06-.01,.14-.03,.21-.05v.77c-.13,.03-.26,.05-.38,.07-.12,.02-.24,.02-.35,.02-.44,0-.75-.11-.93-.32-.18-.21-.27-.63-.27-1.27v-2.16h-.71v-.75h.71v-.91l1.03-.31h0Zm3.75,3.52s-.04,0-.08,0c-.12-.01-.21-.02-.29-.02-.39,0-.67,.07-.86,.2-.19,.14-.28,.34-.28,.62,0,.21,.06,.38,.18,.49,.12,.12,.28,.18,.49,.18,.3,0,.51-.1,.65-.29,.14-.19,.21-.49,.21-.9v-.29h0Zm1.01-.49v1.75c0,.19,0,.35,.01,.49,0,.14,.02,.27,.04,.39h-.96l-.06-.55c-.16,.22-.34,.38-.55,.49-.21,.11-.44,.16-.7,.16-.38,0-.7-.12-.93-.37-.24-.25-.35-.58-.35-.98,0-.49,.18-.86,.53-1.12,.36-.26,.87-.38,1.55-.38,.09,0,.16,0,.23,0,.07,0,.13,0,.2,0v-.19c0-.27-.08-.47-.23-.61-.15-.14-.37-.21-.66-.21-.21,0-.41,.03-.6,.1-.19,.07-.36,.18-.52,.32l-.07-.83c.23-.11,.47-.2,.71-.25,.24-.06,.47-.09,.7-.09,.62,0,1.05,.14,1.3,.41,.25,.27,.38,.77,.38,1.49h0Zm-.71-3.61h.42c-.08,.32-.19,.56-.33,.71-.14,.15-.32,.22-.53,.22-.06,0-.11,0-.16-.01s-.1-.02-.14-.03l-.39-.12s-.09-.02-.13-.03c-.04,0-.08-.01-.11-.01-.1,0-.18,.03-.25,.08-.06,.05-.12,.13-.16,.23h-.42c.07-.31,.18-.53,.32-.68,.14-.15,.32-.22,.54-.22,.06,0,.11,0,.17,.01,.05,0,.1,.02,.14,.03l.41,.13c.06,.01,.1,.02,.14,.03,.03,0,.06,0,.1,0,.09,0,.17-.03,.23-.08,.06-.05,.11-.14,.15-.25h0Zm3.48,2.49c-.26,0-.47,.13-.61,.4-.14,.26-.21,.65-.21,1.14s.07,.87,.21,1.13c.14,.26,.35,.39,.61,.39s.47-.13,.61-.39,.21-.63,.21-1.13-.07-.88-.21-1.14c-.14-.26-.35-.4-.61-.4h0Zm0-.78c.61,0,1.09,.2,1.42,.6,.33,.4,.5,.97,.5,1.71s-.17,1.31-.5,1.71c-.33,.4-.81,.6-1.42,.6s-1.08-.2-1.41-.6c-.33-.4-.5-.97-.5-1.71s.17-1.31,.49-1.71c.33-.4,.8-.6,1.41-.6h0Zm5.09-1.47h3.09v.83h-2.01v1.68h1.9v.83h-1.9v1.83h2.11v.83h-3.19v-5.99h0Zm6.94,1.66l-.05,.84c-.11-.06-.23-.11-.37-.15-.13-.04-.26-.05-.39-.05-.36,0-.63,.12-.82,.37-.19,.24-.29,.59-.29,1.05,0,.49,.1,.87,.29,1.14,.19,.27,.47,.4,.83,.4,.14,0,.28-.02,.41-.05,.14-.04,.27-.09,.4-.16l.04,.85c-.18,.07-.36,.12-.55,.15-.18,.03-.38,.05-.58,.05-.6,0-1.07-.21-1.42-.62-.35-.41-.53-.97-.53-1.66,0-.74,.18-1.31,.54-1.72,.36-.41,.86-.61,1.5-.61,.15,0,.31,.02,.47,.05,.16,.03,.33,.08,.5,.14h0Zm2.4,.59c-.26,0-.47,.13-.61,.4-.14,.26-.21,.65-.21,1.14s.07,.87,.21,1.13c.14,.26,.35,.39,.61,.39s.47-.13,.61-.39,.21-.63,.21-1.13-.07-.88-.21-1.14c-.14-.26-.35-.4-.61-.4h0Zm0-.78c.61,0,1.09,.2,1.42,.6,.33,.4,.5,.97,.5,1.71s-.17,1.31-.5,1.71c-.33,.4-.81,.6-1.42,.6s-1.08-.2-1.41-.6c-.33-.4-.5-.97-.5-1.71s.17-1.31,.49-1.71c.33-.4,.8-.6,1.41-.6h0Zm5.09-1.47h1.08v5.99h-1.08v-5.99h0Zm3.44,.35v1.22h.86v.75h-.86v2.15c0,.33,.04,.55,.11,.65,.07,.1,.2,.15,.39,.15,.06,0,.13,0,.19-.02,.06-.01,.14-.03,.21-.05v.77c-.13,.03-.26,.05-.38,.07-.12,.02-.24,.02-.35,.02-.44,0-.75-.11-.93-.32-.18-.21-.27-.63-.27-1.27v-2.16h-.71v-.75h.71v-.91l1.03-.31h0Zm3.75,3.52s-.04,0-.08,0c-.12-.01-.21-.02-.29-.02-.39,0-.67,.07-.86,.2-.19,.14-.28,.34-.28,.62,0,.21,.06,.38,.18,.49,.12,.12,.28,.18,.49,.18,.3,0,.51-.1,.65-.29,.14-.19,.21-.49,.21-.9v-.29h0Zm1.01-.49v1.75c0,.19,0,.35,.01,.49,0,.14,.02,.27,.04,.39h-.96l-.06-.55c-.16,.22-.34,.38-.55,.49-.21,.11-.44,.16-.7,.16-.38,0-.7-.12-.93-.37-.24-.25-.35-.58-.35-.98,0-.49,.18-.86,.53-1.12,.36-.26,.87-.38,1.55-.38,.08,0,.16,0,.23,0,.07,0,.13,0,.2,0v-.19c0-.27-.08-.47-.23-.61-.15-.14-.37-.21-.66-.21-.21,0-.41,.03-.6,.1-.19,.07-.36,.18-.52,.32l-.07-.83c.23-.11,.47-.2,.71-.25,.24-.06,.47-.09,.7-.09,.62,0,1.05,.14,1.3,.41,.25,.27,.38,.77,.38,1.49h0Zm1.09-1.8h1.03v4.43h-1.03v-4.43h0Zm-.03-1.86h1.08v1.01h-1.08v-1.01h0Zm3.33,.64v1.22h.86v.75h-.86v2.15c0,.33,.04,.55,.11,.65,.07,.1,.2,.15,.39,.15,.06,0,.13,0,.19-.02,.06-.01,.14-.03,.21-.05v.77c-.13,.03-.26,.05-.38,.07-.12,.02-.24,.02-.35,.02-.44,0-.75-.11-.93-.32-.18-.21-.27-.63-.27-1.27v-2.16h-.71v-.75h.71v-.91l1.03-.31Z"/>
      <path class="cls-4" d="M203.48,76.22h1.04v2.85c0,.27,.05,.47,.14,.6,.1,.13,.24,.2,.44,.2,.23,0,.42-.09,.55-.28,.13-.19,.2-.45,.2-.79v-2.57h1.04v3.4c0,.27,0,.48,0,.62,0,.15,.01,.28,.02,.41h-.94c-.01-.11-.02-.22-.03-.33,0-.11,0-.22,0-.33-.11,.24-.27,.42-.49,.56-.21,.13-.45,.2-.73,.2-.4,0-.71-.13-.93-.38-.21-.25-.32-.61-.32-1.1v-3.05h0Zm5.55,2.45c0,.41,.07,.73,.2,.95s.33,.33,.58,.33,.46-.13,.59-.38c.13-.25,.2-.63,.2-1.12s-.07-.87-.2-1.12c-.13-.25-.33-.38-.59-.38s-.44,.11-.58,.33c-.14,.22-.2,.54-.2,.94v.45h0Zm-1.03-4.48h1.03v2.63c.14-.24,.29-.42,.47-.53,.18-.11,.39-.17,.64-.17,.51,0,.89,.2,1.16,.59,.27,.39,.4,.96,.4,1.72s-.13,1.32-.4,1.72c-.27,.4-.65,.6-1.15,.6-.26,0-.49-.06-.68-.19-.19-.12-.36-.32-.49-.58,0,.08,0,.17,0,.27,0,.1-.02,.23-.03,.4h-.94v-6.46h0Zm6.73,4.33s-.04,0-.09,0c-.12-.01-.21-.02-.29-.02-.39,0-.67,.07-.86,.2-.19,.14-.28,.34-.28,.62,0,.21,.06,.38,.18,.49,.12,.12,.28,.18,.49,.18,.3,0,.51-.1,.65-.29,.14-.19,.21-.49,.21-.9v-.29h0Zm1.01-.49v1.75c0,.19,0,.35,.01,.49,0,.14,.02,.27,.04,.39h-.96l-.06-.55c-.16,.22-.34,.38-.55,.49-.21,.11-.44,.16-.7,.16-.38,0-.7-.12-.93-.37-.24-.25-.35-.58-.35-.98,0-.49,.18-.86,.53-1.12,.36-.26,.87-.38,1.55-.38,.08,0,.16,0,.23,0,.07,0,.13,0,.2,0v-.19c0-.27-.08-.47-.23-.61-.15-.14-.37-.21-.66-.21-.21,0-.41,.03-.6,.1-.19,.07-.36,.18-.52,.32l-.07-.83c.23-.11,.47-.2,.71-.25,.24-.06,.47-.09,.7-.09,.62,0,1.05,.14,1.3,.41,.25,.27,.38,.77,.38,1.49h0Zm1.23,1.5h1v1.13h-1v-1.13h0Zm0-3.3h1v1.13h-1v-1.13h0Zm5.43-2.09h.54c-.36,.71-.62,1.38-.79,2-.17,.62-.25,1.23-.25,1.84s.08,1.23,.25,1.85c.17,.61,.43,1.28,.79,1.98h-.54c-.4-.7-.7-1.36-.89-1.99-.19-.63-.29-1.24-.29-1.84s.1-1.21,.3-1.84c.2-.63,.49-1.3,.89-1.99h0Zm1.2,6.43l.07-.68c.12,.08,.26,.15,.41,.19,.15,.04,.32,.06,.5,.06,.47,0,.82-.19,1.05-.56,.23-.37,.36-.95,.38-1.74-.13,.21-.29,.37-.48,.48-.19,.11-.4,.16-.64,.16-.46,0-.82-.17-1.1-.51-.28-.34-.41-.8-.41-1.36,0-.62,.15-1.11,.45-1.47,.3-.36,.7-.55,1.2-.55,.59,0,1.03,.23,1.32,.69,.29,.46,.43,1.16,.43,2.11,0,1.14-.18,1.98-.53,2.53-.35,.55-.89,.83-1.62,.83-.16,0-.33-.01-.5-.04-.17-.03-.34-.07-.51-.14h0Zm1.43-5.38c-.3,0-.53,.11-.69,.34-.16,.23-.24,.56-.24,.99s.08,.77,.24,1c.16,.23,.39,.35,.69,.35s.54-.11,.7-.34c.16-.23,.24-.56,.24-.99s-.08-.77-.24-1c-.16-.23-.39-.34-.7-.34h0Zm4.62,2.35c.36,.06,.65,.21,.86,.47,.21,.26,.31,.58,.31,.98,0,.54-.18,.97-.53,1.29-.35,.32-.82,.47-1.43,.47-.21,0-.42-.02-.63-.05-.21-.04-.41-.09-.61-.17l.06-.69c.18,.09,.36,.17,.54,.21,.18,.04,.36,.07,.55,.07,.4,0,.71-.1,.93-.31,.22-.21,.33-.5,.33-.88s-.11-.63-.31-.8c-.21-.17-.54-.25-1-.25-.09,0-.17,0-.22,0s-.1,0-.15,.02v-.65h.03c.15,.01,.27,.02,.34,.02,.41,0,.73-.09,.96-.27,.23-.18,.34-.43,.34-.76s-.09-.59-.27-.76c-.18-.18-.44-.26-.79-.26-.17,0-.34,.03-.51,.08-.17,.06-.35,.15-.55,.27l-.08-.68c.19-.09,.39-.16,.62-.21s.45-.07,.69-.07c.51,0,.92,.14,1.22,.43,.3,.29,.46,.67,.46,1.14,0,.35-.1,.65-.29,.89-.2,.24-.47,.4-.83,.5h0Zm1.92-3.4h.54c.4,.7,.7,1.36,.9,2,.2,.64,.3,1.25,.3,1.84s-.1,1.2-.3,1.83c-.2,.63-.5,1.3-.9,2h-.54c.36-.72,.63-1.38,.79-1.99s.25-1.22,.25-1.83-.08-1.22-.25-1.84c-.17-.62-.43-1.28-.79-1.99h0Zm4.87,6.43l.07-.68c.12,.08,.26,.15,.41,.19,.15,.04,.32,.06,.5,.06,.47,0,.82-.19,1.05-.56,.23-.37,.36-.95,.38-1.74-.13,.21-.29,.37-.48,.48-.19,.11-.4,.16-.64,.16-.46,0-.82-.17-1.1-.51-.28-.34-.41-.8-.41-1.36,0-.62,.15-1.11,.45-1.47,.3-.36,.7-.55,1.2-.55,.59,0,1.03,.23,1.32,.69,.29,.46,.43,1.16,.43,2.11,0,1.14-.18,1.98-.53,2.53-.35,.55-.89,.83-1.62,.83-.16,0-.33-.01-.5-.04-.17-.03-.34-.07-.51-.14h0Zm1.43-5.38c-.3,0-.53,.11-.69,.34-.16,.23-.24,.56-.24,.99s.08,.77,.24,1c.16,.23,.39,.35,.69,.35s.54-.11,.7-.34c.16-.23,.24-.56,.24-.99s-.08-.77-.24-1c-.16-.23-.39-.34-.7-.34h0Zm2.83,5.38l.07-.68c.12,.08,.26,.15,.41,.19,.15,.04,.32,.06,.5,.06,.47,0,.82-.19,1.05-.56,.23-.37,.36-.95,.38-1.74-.13,.21-.29,.37-.48,.48-.19,.11-.4,.16-.64,.16-.46,0-.82-.17-1.1-.51-.28-.34-.41-.8-.41-1.36,0-.62,.15-1.11,.45-1.47,.3-.36,.7-.55,1.2-.55,.59,0,1.03,.23,1.32,.69,.29,.46,.43,1.16,.43,2.11,0,1.14-.18,1.98-.53,2.53-.35,.55-.89,.83-1.62,.83-.16,0-.33-.01-.5-.04-.17-.03-.34-.07-.51-.14h0Zm1.43-5.38c-.3,0-.53,.11-.69,.34-.16,.23-.24,.56-.24,.99s.08,.77,.24,1c.16,.23,.39,.35,.69,.35s.54-.11,.7-.34c.16-.23,.24-.56,.24-.99s-.08-.77-.24-1c-.16-.23-.39-.34-.7-.34h0Zm3.47,4.82h2.28v.66h-3.1v-.67c.82-.94,1.4-1.7,1.74-2.28,.34-.58,.51-1.07,.51-1.48,0-.31-.08-.56-.24-.74-.16-.18-.39-.27-.67-.27-.19,0-.37,.03-.55,.1-.18,.07-.36,.18-.56,.33l-.1-.7c.18-.12,.38-.21,.61-.28,.23-.07,.46-.1,.7-.1,.47,0,.85,.14,1.13,.43,.28,.29,.42,.66,.42,1.14s-.17,1.04-.51,1.65c-.34,.61-.9,1.35-1.67,2.21h0Zm5-5.34h.63v5.99h-.7v-5.11l-.78,.81-.38-.53,1.22-1.16h0Zm4.26,3.17c-.31,.14-.53,.31-.67,.51-.14,.2-.21,.45-.21,.74,0,.33,.09,.58,.28,.78,.19,.19,.44,.29,.75,.29,.29,0,.52-.09,.7-.27,.18-.18,.27-.42,.27-.72s-.09-.57-.28-.78c-.19-.22-.46-.4-.84-.53h0Zm.73-.36c.4,.22,.69,.45,.87,.71,.18,.26,.27,.57,.27,.95,0,.48-.16,.86-.47,1.16-.31,.3-.72,.45-1.22,.45-.53,0-.96-.15-1.29-.46-.33-.3-.49-.7-.49-1.19,0-.35,.09-.66,.27-.92,.18-.26,.45-.48,.82-.65-.31-.18-.55-.39-.7-.63-.16-.24-.24-.51-.24-.81,0-.44,.15-.8,.44-1.08,.29-.28,.67-.42,1.12-.42,.49,0,.88,.13,1.17,.38,.29,.25,.43,.6,.43,1.03,0,.3-.08,.56-.24,.81-.16,.24-.41,.47-.74,.68h0Zm-.5-.24c.27-.19,.46-.37,.59-.56,.12-.19,.19-.4,.19-.62,0-.27-.08-.48-.23-.63-.15-.16-.36-.23-.62-.23-.29,0-.51,.08-.66,.23-.16,.15-.23,.37-.23,.65,0,.24,.08,.46,.24,.66,.16,.19,.41,.37,.74,.52h0Zm2.38,.86h1.83v.62h-1.83v-.62h0Zm3.42,1.91h2.28v.66h-3.1v-.67c.82-.94,1.4-1.7,1.74-2.28,.34-.58,.51-1.07,.51-1.48,0-.31-.08-.56-.24-.74-.16-.18-.39-.27-.67-.27-.19,0-.37,.03-.55,.1-.18,.07-.36,.18-.56,.33l-.1-.7c.18-.12,.38-.21,.61-.28,.23-.07,.46-.1,.7-.1,.47,0,.85,.14,1.13,.43,.28,.29,.42,.66,.42,1.14s-.17,1.04-.51,1.65c-.34,.61-.9,1.35-1.67,2.21h0Zm3.7-5.34h2.72v.61h-2.04v1.67c.13-.03,.24-.05,.34-.07,.1-.01,.2-.02,.29-.02,.53,0,.94,.16,1.24,.49,.3,.33,.45,.78,.45,1.36,0,.63-.17,1.13-.52,1.49-.34,.36-.82,.54-1.43,.54-.19,0-.39-.02-.58-.05-.19-.04-.38-.09-.55-.16l.05-.74c.14,.11,.3,.19,.48,.24,.18,.05,.37,.08,.58,.08,.39,0,.69-.12,.9-.35,.21-.23,.32-.56,.32-.98s-.1-.76-.31-.98c-.21-.22-.51-.34-.91-.34-.18,0-.36,.02-.53,.05s-.34,.09-.51,.16v-3.01h0Zm4.8,5.34h2.28v.66h-3.1v-.67c.82-.94,1.4-1.7,1.74-2.28,.34-.58,.51-1.07,.51-1.48,0-.31-.08-.56-.24-.74-.16-.18-.39-.27-.67-.27-.19,0-.37,.03-.55,.1-.18,.07-.36,.18-.56,.33l-.1-.7c.18-.12,.38-.21,.61-.28,.23-.07,.46-.1,.7-.1,.47,0,.85,.14,1.13,.43,.28,.29,.42,.66,.42,1.14s-.17,1.04-.51,1.65c-.34,.61-.9,1.35-1.67,2.21h0Zm3.51-5.34h3.1v.75l-1.77,5.24h-.83l1.9-5.37h-2.4v-.62Z"/>
    </g>
  </g>
  <text class="cls-2" transform="translate(148.81 55.95)"><tspan x="0" y="0">Central de Relacionamento</tspan></text>
  <rect class="cls-1" x=".04" y="112.27" width="348.25" height="35.47"/>
  <g>
    <g>
      <path class="cls-10" d="M24.81,57.95c0,.57-.1,1.06-.31,1.47-.21,.41-.5,.72-.88,.95-.37,.22-.82,.33-1.32,.33s-.94-.11-1.32-.33c-.37-.22-.67-.54-.88-.94-.21-.4-.32-.88-.32-1.42,0-.28,.03-.56,.08-.83,.06-.27,.15-.54,.28-.8h.84c-.13,.28-.23,.54-.28,.78-.06,.24-.09,.47-.09,.71,0,.38,.07,.71,.22,.98,.15,.27,.34,.47,.6,.61,.25,.14,.54,.21,.86,.21s.61-.07,.86-.21c.25-.14,.46-.34,.6-.62,.15-.27,.22-.6,.22-.99,0-.27-.03-.52-.1-.77-.07-.24-.16-.49-.29-.73h.82c.16,.29,.27,.57,.32,.83,.05,.27,.08,.53,.08,.78h0Z"/>
      <path class="cls-10" d="M24.81,53.91c0,.38-.09,.72-.27,1.01-.17,.29-.43,.52-.76,.69-.33,.17-.74,.25-1.21,.25-.44,0-.84-.07-1.19-.21-.34-.14-.64-.35-.88-.61-.24-.27-.42-.58-.54-.94-.12-.36-.19-.76-.19-1.19,0-.33,.03-.67,.11-1.01,.07-.34,.17-.63,.27-.87h4.55v1.04h-1.93s.06-.24,.06-.24c.64,.12,1.14,.35,1.47,.71,.33,.35,.5,.82,.5,1.38h0Zm-.78-.31c0-.31-.1-.59-.32-.82-.21-.24-.54-.42-.99-.55-.45-.13-1.03-.19-1.74-.17h-.72l.66-.36c-.11,.2-.19,.41-.24,.62-.05,.21-.07,.43-.07,.65,0,.38,.08,.72,.23,1,.15,.28,.37,.5,.66,.64,.28,.15,.62,.22,1.01,.22,.49,0,.87-.11,1.13-.33,.27-.22,.4-.52,.4-.9h0Z"/>
      <path class="cls-10" d="M24.72,50.11h-4.84v-1.02h1.38s-.05,.13-.05,.13c-.33-.11-.6-.26-.81-.45-.21-.19-.37-.42-.47-.68-.1-.27-.15-.57-.15-.91h1.01c0,.3,.02,.56,.07,.78,.05,.21,.11,.4,.2,.54,.09,.15,.2,.27,.33,.35,.13,.09,.27,.15,.44,.19,.17,.03,.34,.05,.54,.05h2.35v1.02h0Z"/>
      <path class="cls-10" d="M24.81,44.68c0,.46-.09,.84-.25,1.12-.17,.28-.41,.48-.72,.6-.3,.12-.66,.18-1.06,.18h-4.45s0-1.02,0-1.02h4.48c.27,0,.49-.04,.66-.12,.17-.08,.29-.2,.37-.37,.08-.17,.12-.37,.12-.61,0-.2-.02-.37-.05-.51-.03-.14-.09-.32-.15-.53h.82c.08,.2,.15,.4,.19,.61,.04,.21,.06,.43,.06,.66h0Zm-4.15,1.44h0v-2.36h-.78v2.36h.78Z"/>
      <path class="cls-10" d="M24.81,41.4c0,.38-.09,.72-.27,1.01-.17,.29-.43,.52-.76,.69-.33,.17-.74,.25-1.21,.25-.44,0-.84-.07-1.19-.21-.34-.14-.64-.35-.88-.61-.24-.27-.42-.58-.54-.94-.12-.36-.19-.76-.19-1.19,0-.33,.03-.67,.11-1.01,.07-.34,.17-.63,.27-.87h4.55v1.04h-1.93s.06-.24,.06-.24c.64,.12,1.14,.35,1.47,.71,.33,.35,.5,.82,.5,1.38h0Zm-.78-.3c0-.31-.1-.59-.32-.82-.21-.24-.54-.42-.99-.55-.45-.13-1.03-.19-1.74-.17h-.72l.66-.36c-.11,.2-.19,.41-.24,.62-.05,.21-.07,.43-.07,.65,0,.38,.08,.72,.23,1,.15,.28,.37,.5,.66,.64,.28,.15,.62,.22,1.01,.22,.49,0,.87-.11,1.13-.33,.27-.22,.4-.52,.4-.9h0Zm-4.68-1.32c0,.17-.03,.33-.1,.48-.07,.15-.13,.3-.2,.44-.07,.14-.1,.29-.1,.45,0,.13,.03,.26,.08,.39,.06,.13,.14,.26,.27,.39h-.68c-.1-.13-.18-.26-.24-.4-.06-.14-.08-.27-.08-.43,0-.16,.03-.32,.1-.47,.07-.15,.14-.3,.2-.44,.07-.15,.1-.3,.1-.44s-.04-.28-.12-.4c-.08-.12-.2-.25-.37-.38h.74c.13,.13,.23,.26,.29,.39,.06,.13,.09,.27,.09,.42h0Z"/>
      <path class="cls-10" d="M24.81,35.2c0,.58-.11,1.06-.32,1.45-.21,.39-.51,.69-.89,.89-.38,.2-.81,.31-1.3,.31s-.92-.1-1.29-.31c-.38-.2-.68-.5-.9-.89-.22-.39-.33-.88-.33-1.45s.11-1.06,.33-1.46,.52-.69,.9-.9c.38-.2,.81-.3,1.29-.3s.92,.1,1.3,.3c.38,.2,.68,.5,.89,.9,.21,.4,.32,.88,.32,1.46h0Zm-.82,0c0-.35-.07-.65-.22-.89-.15-.24-.35-.42-.6-.55-.25-.12-.54-.19-.87-.19s-.63,.06-.88,.19c-.25,.12-.46,.31-.6,.55-.15,.24-.22,.54-.22,.89s.07,.64,.22,.88c.15,.24,.35,.42,.6,.55,.25,.12,.55,.19,.88,.19s.62-.06,.87-.19c.25-.12,.46-.3,.6-.55,.15-.24,.22-.54,.22-.88Z"/>
    </g>
    <path class="cls-10" d="M54.05,46.62c0-7.91-5.7-13.72-13.93-13.72s-14.03,5.8-14.03,13.72,5.8,13.72,14.03,13.72c4.31,0,7.92-1.57,10.37-4.2l-4.44-3.69c-1.33,1.49-3.3,2.19-5.93,2.19-3.69,0-6.6-2-7.44-5.8h21.36v-2.21h0Zm-21.21-2.79c1-3.43,3.74-5.22,7.28-5.22s6.28,1.74,7.28,5.22h-14.56Z"/>
    <path class="cls-10" d="M65.65,54.48c-4.59,0-7.7-3.27-7.7-7.86s3.11-7.86,7.7-7.86c2.93,0,5.29,1.31,6.6,3.44,.59-2.2,1.63-4.16,3.03-5.8-2.41-2.2-5.73-3.5-9.63-3.5-8.23,0-14.03,5.8-14.03,13.72s5.8,13.72,14.03,13.72c3.9,0,7.22-1.3,9.63-3.5-1.4-1.64-2.43-3.6-3.03-5.8-1.31,2.13-3.67,3.44-6.6,3.44h0Z"/>
    <path class="cls-10" d="M73.56,46.62c0-7.91,5.8-13.72,14.03-13.72s14.03,5.8,14.03,13.72-5.8,13.72-14.03,13.72-14.03-5.8-14.03-13.72h0Zm21.68,0c0-4.59-3.06-7.86-7.65-7.86s-7.7,3.27-7.7,7.86,3.11,7.86,7.7,7.86,7.65-3.27,7.65-7.86Z"/>
  </g>
</svg>