<svg width="25" height="24" viewBox="0 0 25 24" fill="none" xmlns="http://www.w3.org/2000/svg">
<path fill-rule="evenodd" clip-rule="evenodd" d="M12.1045 1.5C12.5187 1.5 12.8545 1.83579 12.8545 2.25V14.6893L15.3242 12.2197C15.6171 11.9268 16.0919 11.9268 16.3848 12.2197C16.6777 12.5126 16.6777 12.9874 16.3848 13.2803L12.6348 17.0303C12.3419 17.3232 11.8671 17.3232 11.5742 17.0303L7.82416 13.2803C7.53127 12.9874 7.53127 12.5126 7.82416 12.2197C8.11705 11.9268 8.59193 11.9268 8.88482 12.2197L11.3545 14.6893V2.25C11.3545 1.83579 11.6903 1.5 12.1045 1.5ZM6.47949 9C6.18112 9 5.89498 9.11853 5.684 9.3295C5.47302 9.54048 5.35449 9.82663 5.35449 10.125V19.875C5.35449 20.1734 5.47302 20.4595 5.684 20.6705C5.89498 20.8815 6.18112 21 6.47949 21H17.7295C18.0279 21 18.314 20.8815 18.525 20.6705C18.736 20.4595 18.8545 20.1734 18.8545 19.875V10.125C18.8545 9.82663 18.736 9.54048 18.525 9.3295C18.314 9.11853 18.0279 9 17.7295 9H15.8545C15.4403 9 15.1045 8.66421 15.1045 8.25C15.1045 7.83579 15.4403 7.5 15.8545 7.5H17.7295C18.4257 7.5 19.0934 7.77656 19.5856 8.26884C20.0779 8.76113 20.3545 9.42881 20.3545 10.125V19.875C20.3545 20.5712 20.0779 21.2389 19.5856 21.7312C19.0934 22.2234 18.4257 22.5 17.7295 22.5H6.47949C5.7833 22.5 5.11562 22.2234 4.62334 21.7312C4.13105 21.2389 3.85449 20.5712 3.85449 19.875V10.125C3.85449 9.42881 4.13105 8.76113 4.62334 8.26884C5.11562 7.77656 5.7833 7.5 6.47949 7.5H8.35449C8.76871 7.5 9.10449 7.83579 9.10449 8.25C9.10449 8.66421 8.76871 9 8.35449 9H6.47949Z" fill="black"/>
</svg>
